<svg version="1.1" id="Layer_1" xmlns="http://www.w3.org/2000/svg" xmlns:xlink="http://www.w3.org/1999/xlink" x="0px" y="0px"
	 width="100%" viewBox="0 0 221 54" enable-background="new 0 0 221 54" xml:space="preserve">
<path fill="#FCFCFC" opacity="1.000000" stroke="none" 
	d="
M167.000000,55.000000 
	C111.333344,55.000000 56.166679,55.000000 1.000015,55.000000 
	C1.000010,37.000008 1.000010,19.000017 1.000005,1.000020 
	C74.666649,1.000013 148.333298,1.000013 221.999969,1.000007 
	C221.999969,18.999981 221.999969,36.999962 221.999985,54.999969 
	C203.833328,55.000000 185.666672,55.000000 167.000000,55.000000 
M44.187569,8.891643 
	C36.073208,8.690585 27.932726,8.018127 19.854311,8.465782 
	C15.030706,8.733075 12.310215,12.676229 12.094309,17.503506 
	C11.811812,23.819643 11.787160,30.167091 12.065428,36.482838 
	C12.331587,42.523750 15.359147,45.709240 21.399036,46.077194 
	C27.670734,46.459270 33.999710,46.480412 40.272179,46.116768 
	C47.336143,45.707237 49.954590,42.729404 50.123074,35.621128 
	C50.261162,29.795223 50.129696,23.963032 50.126133,18.133625 
	C50.123692,14.143643 48.605797,11.030479 44.187569,8.891643 
M69.027794,35.596970 
	C69.744698,32.867382 70.461601,30.137796 71.532379,26.060881 
	C73.034294,31.941950 74.169823,36.388367 75.301605,40.820099 
	C77.743454,40.820099 79.852013,40.820099 82.191124,40.820099 
	C84.163101,33.215588 86.100967,25.742613 88.119705,17.957773 
	C85.843170,17.957773 84.086349,17.957773 82.162979,17.957773 
	C81.088181,22.923914 80.051926,27.711992 79.015663,32.500072 
	C78.753754,32.447159 78.491844,32.394245 78.229942,32.341331 
	C77.059769,27.549097 75.889587,22.756863 74.724266,17.984493 
	C72.425674,17.984493 70.491127,17.984493 68.439362,17.984493 
	C67.161171,22.965288 65.935333,27.742096 64.709488,32.518906 
	C64.466957,32.496265 64.224426,32.473629 63.981899,32.450989 
	C62.950203,27.631214 61.918507,22.811440 60.890232,18.007637 
	C58.795235,18.007637 57.041866,18.007637 54.934486,18.007637 
	C56.943192,25.865473 58.862858,33.374989 60.763885,40.811600 
	C63.263885,40.811600 65.388107,40.811600 67.588638,40.811600 
	C68.043205,39.230530 68.449249,37.818268 69.027794,35.596970 
M97.862167,22.106722 
	C96.921333,22.424023 95.933609,22.644730 95.047592,23.074930 
	C90.629356,25.220188 89.485558,29.080656 90.129486,33.505550 
	C90.735382,37.669064 93.164688,40.506966 97.552803,41.005753 
	C102.185860,41.532375 106.014870,40.341354 108.222488,34.555580 
	C105.392471,35.098873 103.116409,35.178699 101.146744,35.996502 
	C98.087486,37.266697 96.580467,36.532269 95.824394,32.840649 
	C100.275276,32.840649 104.343521,32.840649 108.410614,32.840649 
	C108.154915,25.197121 105.902229,22.806082 97.862167,22.106722 
M175.403427,29.970078 
	C175.351288,36.541500 177.614929,40.143959 182.331406,40.995583 
	C187.652451,41.956375 190.850876,40.251545 193.185272,34.586838 
	C190.615906,35.104008 188.349777,35.221519 186.370987,36.036606 
	C183.286362,37.307186 182.011169,36.122044 180.667725,32.876831 
	C185.559753,32.876831 189.666840,32.876831 193.768112,32.876831 
	C193.689545,26.303434 191.157471,22.900488 186.041107,22.101738 
	C181.347473,21.368982 177.572495,23.946861 175.403427,29.970078 
M143.960159,33.032463 
	C142.582901,34.083908 141.205658,35.135353 139.828400,36.186798 
	C138.856308,34.856575 137.246368,33.616104 137.043961,32.177582 
	C136.612762,29.112904 136.912155,25.945427 136.912155,22.669836 
	C134.735809,22.669836 133.045486,22.669836 131.185715,22.669836 
	C131.185715,26.705540 130.973526,30.370605 131.245941,33.999290 
	C131.513458,37.562695 133.083252,40.659462 137.096634,40.976921 
	C141.269470,41.306999 145.488693,41.050495 149.569702,41.050495 
	C149.569702,34.445133 149.569702,28.528933 149.569702,22.524044 
	C147.643967,22.524044 146.050858,22.524044 143.970627,22.524044 
	C143.970627,25.876093 143.970627,29.001921 143.960159,33.032463 
M159.733170,33.602394 
	C159.733322,33.104641 159.731628,32.606880 159.733948,32.109135 
	C159.745117,29.724266 159.669846,27.138662 162.997665,27.066965 
	C166.513290,26.991222 166.778061,29.576445 166.764297,32.241104 
	C166.749939,35.020760 166.761108,37.800545 166.761108,40.635303 
	C168.810471,40.635303 170.486649,40.635303 172.214020,40.635303 
	C172.214020,36.441006 172.306183,32.623253 172.188446,28.811979 
	C172.067200,24.886564 169.664307,22.478161 166.014587,22.233507 
	C162.115036,21.972103 158.152710,22.647226 154.081909,22.922739 
	C154.081909,28.822563 154.081909,34.729393 154.081909,40.712776 
	C156.001465,40.712776 157.707870,40.712776 159.733154,40.712776 
	C159.733154,38.449997 159.733154,36.485043 159.733170,33.602394 
M204.738678,34.030464 
	C205.281464,34.667362 205.824265,35.304260 206.367065,35.941147 
	C205.199783,36.181992 203.952286,36.806702 202.882034,36.583103 
	C200.709839,36.129292 198.633499,35.216637 195.666718,34.202129 
	C198.288040,40.395805 201.439941,42.310734 206.757034,40.842106 
	C208.750809,40.291409 211.332413,38.028202 211.608139,36.232788 
	C211.858612,34.601913 209.661285,32.142910 207.954346,30.793886 
	C206.326172,29.507133 203.937943,29.182096 201.883850,28.434280 
	C201.993301,27.885794 202.102768,27.337307 202.212234,26.788820 
	C205.258713,27.302666 208.305206,27.816511 211.930008,28.427898 
	C210.387619,23.115191 206.971725,21.316963 202.989212,22.286350 
	C200.591187,22.870050 197.415604,25.283129 196.875763,27.445042 
	C195.702972,32.141678 200.258408,32.584690 203.457977,33.698517 
	C203.614746,33.753090 203.769287,33.814117 204.738678,34.030464 
M117.595284,17.751968 
	C116.268425,17.752150 114.935478,17.834423 113.615898,17.736509 
	C110.198074,17.482906 109.579979,18.993622 110.795448,21.869301 
	C112.684006,22.019682 114.447906,22.160135 116.651955,22.335638 
	C116.651955,28.612331 116.651955,34.662952 116.651955,40.731895 
	C118.697456,40.731895 120.260239,40.731895 122.265938,40.731895 
	C122.265938,34.418739 122.265938,28.368027 122.265938,22.231834 
	C124.457901,22.097553 126.208679,21.990299 127.856285,21.889366 
	C128.727097,18.914402 128.185379,17.437666 125.023476,17.716595 
	C122.884003,17.905333 120.714363,17.752193 117.595284,17.751968 
z"/>
<path fill="#A0A3AD" opacity="1.000000" stroke="none" 
	d="
M44.576122,9.011067 
	C48.605797,11.030479 50.123692,14.143643 50.126133,18.133625 
	C50.129696,23.963032 50.261162,29.795223 50.123074,35.621128 
	C49.954590,42.729404 47.336143,45.707237 40.272179,46.116768 
	C33.999710,46.480412 27.670734,46.459270 21.399036,46.077194 
	C15.359147,45.709240 12.331587,42.523750 12.065428,36.482838 
	C11.787160,30.167091 11.811812,23.819643 12.094309,17.503506 
	C12.310215,12.676229 15.030706,8.733075 19.854311,8.465782 
	C27.932726,8.018127 36.073208,8.690585 44.576122,9.011067 
M19.942881,32.786369 
	C19.453608,36.264973 21.067066,38.494259 24.438309,38.568535 
	C27.884218,38.644459 29.330936,36.254463 29.200834,32.901627 
	C29.162212,31.906338 29.344734,30.882999 29.177704,29.915363 
	C28.198738,24.244076 30.983576,22.143209 37.880146,22.365417 
	C36.153179,24.448910 34.848476,25.658644 34.012932,27.134068 
	C33.186962,28.592583 32.185673,30.451492 32.477623,31.887459 
	C32.717037,33.064999 34.768303,34.686466 35.969776,34.648159 
	C37.434261,34.601463 40.010586,33.116127 40.091881,32.092995 
	C40.511547,26.811317 40.286713,21.478434 40.286713,15.334394 
	C37.006699,16.788189 34.859203,18.322882 32.540226,18.653013 
	C26.758350,19.476133 24.340059,22.474306 25.315609,27.590652 
	C23.313736,29.302238 21.731583,30.654970 19.942881,32.786369 
z"/>
<path fill="#0D0D0D" opacity="1.000000" stroke="none" 
	d="
M68.941544,36.001488 
	C68.449249,37.818268 68.043205,39.230530 67.588638,40.811600 
	C65.388107,40.811600 63.263885,40.811600 60.763885,40.811600 
	C58.862858,33.374989 56.943192,25.865473 54.934486,18.007637 
	C57.041866,18.007637 58.795235,18.007637 60.890232,18.007637 
	C61.918507,22.811440 62.950203,27.631214 63.981899,32.450989 
	C64.224426,32.473629 64.466957,32.496265 64.709488,32.518906 
	C65.935333,27.742096 67.161171,22.965288 68.439362,17.984493 
	C70.491127,17.984493 72.425674,17.984493 74.724266,17.984493 
	C75.889587,22.756863 77.059769,27.549097 78.229942,32.341331 
	C78.491844,32.394245 78.753754,32.447159 79.015663,32.500072 
	C80.051926,27.711992 81.088181,22.923914 82.162979,17.957773 
	C84.086349,17.957773 85.843170,17.957773 88.119705,17.957773 
	C86.100967,25.742613 84.163101,33.215588 82.191124,40.820099 
	C79.852013,40.820099 77.743454,40.820099 75.301605,40.820099 
	C74.169823,36.388367 73.034294,31.941950 71.532379,26.060881 
	C70.461601,30.137796 69.744698,32.867382 68.941544,36.001488 
z"/>
<path fill="#0A0A0A" opacity="1.000000" stroke="none" 
	d="
M98.261070,22.080797 
	C105.902229,22.806082 108.154915,25.197121 108.410614,32.840649 
	C104.343521,32.840649 100.275276,32.840649 95.824394,32.840649 
	C96.580467,36.532269 98.087486,37.266697 101.146744,35.996502 
	C103.116409,35.178699 105.392471,35.098873 108.222488,34.555580 
	C106.014870,40.341354 102.185860,41.532375 97.552803,41.005753 
	C93.164688,40.506966 90.735382,37.669064 90.129486,33.505550 
	C89.485558,29.080656 90.629356,25.220188 95.047592,23.074930 
	C95.933609,22.644730 96.921333,22.424023 98.261070,22.080797 
z"/>
<path fill="#090909" opacity="1.000000" stroke="none" 
	d="
M175.510010,29.595284 
	C177.572495,23.946861 181.347473,21.368982 186.041107,22.101738 
	C191.157471,22.900488 193.689545,26.303434 193.768112,32.876831 
	C189.666840,32.876831 185.559753,32.876831 180.667725,32.876831 
	C182.011169,36.122044 183.286362,37.307186 186.370987,36.036606 
	C188.349777,35.221519 190.615906,35.104008 193.185272,34.586838 
	C190.850876,40.251545 187.652451,41.956375 182.331406,40.995583 
	C177.614929,40.143959 175.351288,36.541500 175.510010,29.595284 
z"/>
<path fill="#121212" opacity="1.000000" stroke="none" 
	d="
M143.965393,32.580109 
	C143.970627,29.001921 143.970627,25.876093 143.970627,22.524044 
	C146.050858,22.524044 147.643967,22.524044 149.569702,22.524044 
	C149.569702,28.528933 149.569702,34.445133 149.569702,41.050495 
	C145.488693,41.050495 141.269470,41.306999 137.096634,40.976921 
	C133.083252,40.659462 131.513458,37.562695 131.245941,33.999290 
	C130.973526,30.370605 131.185715,26.705540 131.185715,22.669836 
	C133.045486,22.669836 134.735809,22.669836 136.912155,22.669836 
	C136.912155,25.945427 136.612762,29.112904 137.043961,32.177582 
	C137.246368,33.616104 138.856308,34.856575 139.828400,36.186798 
	C141.205658,35.135353 142.582901,34.083908 143.965393,32.580109 
z"/>
<path fill="#0B0B0B" opacity="1.000000" stroke="none" 
	d="
M159.733154,34.061241 
	C159.733154,36.485043 159.733154,38.449997 159.733154,40.712776 
	C157.707870,40.712776 156.001465,40.712776 154.081909,40.712776 
	C154.081909,34.729393 154.081909,28.822563 154.081909,22.922739 
	C158.152710,22.647226 162.115036,21.972103 166.014587,22.233507 
	C169.664307,22.478161 172.067200,24.886564 172.188446,28.811979 
	C172.306183,32.623253 172.214020,36.441006 172.214020,40.635303 
	C170.486649,40.635303 168.810471,40.635303 166.761108,40.635303 
	C166.761108,37.800545 166.749939,35.020760 166.764297,32.241104 
	C166.778061,29.576445 166.513290,26.991222 162.997665,27.066965 
	C159.669846,27.138662 159.745117,29.724266 159.733948,32.109135 
	C159.731628,32.606880 159.733322,33.104641 159.733154,34.061241 
z"/>
<path fill="#0C0C0C" opacity="1.000000" stroke="none" 
	d="
M204.331772,33.951302 
	C203.769287,33.814117 203.614746,33.753090 203.457977,33.698517 
	C200.258408,32.584690 195.702972,32.141678 196.875763,27.445042 
	C197.415604,25.283129 200.591187,22.870050 202.989212,22.286350 
	C206.971725,21.316963 210.387619,23.115191 211.930008,28.427898 
	C208.305206,27.816511 205.258713,27.302666 202.212234,26.788820 
	C202.102768,27.337307 201.993301,27.885794 201.883850,28.434280 
	C203.937943,29.182096 206.326172,29.507133 207.954346,30.793886 
	C209.661285,32.142910 211.858612,34.601913 211.608139,36.232788 
	C211.332413,38.028202 208.750809,40.291409 206.757034,40.842106 
	C201.439941,42.310734 198.288040,40.395805 195.666718,34.202129 
	C198.633499,35.216637 200.709839,36.129292 202.882034,36.583103 
	C203.952286,36.806702 205.199783,36.181992 206.367065,35.941151 
	C205.824265,35.304260 205.281464,34.667362 204.331772,33.951302 
z"/>
<path fill="#040404" opacity="1.000000" stroke="none" 
	d="
M118.076752,17.751966 
	C120.714363,17.752193 122.884003,17.905333 125.023476,17.716595 
	C128.185379,17.437666 128.727097,18.914402 127.856285,21.889366 
	C126.208679,21.990299 124.457901,22.097553 122.265938,22.231834 
	C122.265938,28.368027 122.265938,34.418739 122.265938,40.731895 
	C120.260239,40.731895 118.697456,40.731895 116.651955,40.731895 
	C116.651955,34.662952 116.651955,28.612331 116.651955,22.335638 
	C114.447906,22.160135 112.684006,22.019682 110.795448,21.869301 
	C109.579979,18.993622 110.198074,17.482906 113.615898,17.736509 
	C114.935478,17.834423 116.268425,17.752150 118.076752,17.751966 
z"/>
<path fill="#1F263E" opacity="1.000000" stroke="none" 
	d="
M20.046154,32.397034 
	C21.731583,30.654970 23.313736,29.302238 25.315609,27.590652 
	C24.340059,22.474306 26.758350,19.476133 32.540226,18.653013 
	C34.859203,18.322882 37.006699,16.788189 40.286713,15.334394 
	C40.286713,21.478434 40.511547,26.811317 40.091881,32.092995 
	C40.010586,33.116127 37.434261,34.601463 35.969776,34.648159 
	C34.768303,34.686466 32.717037,33.064999 32.477623,31.887459 
	C32.185673,30.451492 33.186962,28.592583 34.012932,27.134068 
	C34.848476,25.658644 36.153179,24.448910 37.880146,22.365417 
	C30.983576,22.143209 28.198738,24.244076 29.177704,29.915363 
	C29.344734,30.882999 29.162212,31.906338 29.200834,32.901627 
	C29.330936,36.254463 27.884218,38.644459 24.438309,38.568535 
	C21.067066,38.494259 19.453608,36.264973 20.046154,32.397034 
z"/>
</svg>