<svg version="1.1" id="Layer_1" xmlns="http://www.w3.org/2000/svg" xmlns:xlink="http://www.w3.org/1999/xlink" x="0px" y="0px"
	 width="100%" viewBox="0 0 218 52" enable-background="new 0 0 218 52" xml:space="preserve">
<path fill="#FBFBFB" opacity="1.000000" stroke="none" 
	d="
M159.000000,53.000000 
	C106.000015,53.000000 53.500027,53.000000 1.000028,53.000000 
	C1.000019,35.666683 1.000019,18.333366 1.000009,1.000037 
	C73.666634,1.000025 146.333267,1.000025 218.999908,1.000013 
	C218.999939,18.333296 218.999939,35.666592 218.999969,52.999943 
	C199.166672,53.000000 179.333328,53.000000 159.000000,53.000000 
M11.746615,24.497807 
	C11.806990,27.322687 11.759932,30.154791 11.949242,32.971004 
	C12.396356,39.622372 15.235373,42.829025 21.794128,43.177395 
	C28.249483,43.520275 34.755920,43.490540 41.209187,43.106888 
	C46.896465,42.768772 49.773365,39.920433 50.099640,34.252071 
	C50.480629,27.633226 50.496048,20.960497 50.129070,14.341140 
	C49.795872,8.330979 46.591408,5.470555 40.515198,4.996117 
	C37.206566,4.737775 33.871353,4.760121 30.548088,4.758950 
	C13.390710,4.752901 11.820338,6.332020 11.746615,24.497807 
M84.065033,27.595791 
	C85.385025,22.499369 86.705017,17.402946 88.110161,11.977767 
	C85.934296,11.977767 84.176682,11.977767 82.190964,11.977767 
	C81.104279,16.898113 80.037170,21.729773 78.970070,26.561430 
	C78.729843,26.522989 78.489609,26.484547 78.249382,26.446104 
	C77.083221,21.645338 75.917068,16.844572 74.728973,11.953516 
	C72.515808,11.953516 70.580894,11.953516 68.432251,11.953516 
	C67.171059,16.930536 65.948502,21.755072 64.358673,28.028955 
	C62.946541,21.605614 61.860584,16.665941 60.760361,11.661382 
	C58.601955,11.770426 56.983135,11.852209 54.978985,11.953460 
	C56.732582,19.011650 58.392391,25.733852 60.084534,32.447906 
	C60.284157,33.239979 60.661182,33.987339 60.929867,34.687412 
	C63.310711,34.687412 65.553017,34.687412 67.647324,34.687412 
	C68.899063,30.045723 70.057999,25.748165 71.558495,20.184048 
	C73.052528,25.988930 74.195312,30.429077 75.318695,34.793831 
	C77.790680,34.793831 79.892990,34.793831 82.113548,34.793831 
	C82.741806,32.548538 83.321098,30.478239 84.065033,27.595791 
M108.309402,23.310823 
	C106.363853,17.840733 102.332108,15.180605 97.511452,16.186384 
	C92.691895,17.191933 89.932556,20.756081 90.001183,25.887140 
	C90.066795,30.793625 93.032730,34.447983 97.419121,35.026844 
	C103.001648,35.763557 105.999619,34.001160 107.318367,29.448559 
	C104.013687,26.271118 98.955177,34.106403 95.306267,27.010717 
	C99.417572,27.010717 102.712158,27.220947 105.947739,26.876719 
	C106.863655,26.779278 107.607292,25.062517 108.309402,23.310823 
M192.962189,26.915457 
	C194.610397,22.269701 192.705826,18.456924 187.864700,16.710735 
	C182.722763,14.856043 177.461716,17.304228 175.852585,22.300451 
	C174.141861,27.612139 176.466614,33.078693 181.132904,34.716911 
	C186.494202,36.599129 191.109634,34.412399 192.665085,29.531681 
	C189.329117,26.158409 184.238434,34.066376 180.505920,27.003229 
	C184.899719,27.003229 188.485428,27.003229 192.962189,26.915457 
M146.514893,16.282801 
	C145.669113,17.165384 144.272858,17.948643 144.091965,18.951193 
	C143.713394,21.049322 143.919617,23.264788 143.988571,25.428783 
	C144.070831,28.010780 143.691620,30.265388 140.431412,30.221678 
	C137.174973,30.178024 136.894684,27.799858 136.898834,25.304337 
	C136.903717,22.376301 136.899994,19.448252 136.899994,16.188263 
	C134.556747,16.350103 132.976913,16.459217 131.251373,16.578394 
	C131.251373,20.791428 131.002014,24.618889 131.323227,28.397854 
	C131.629517,32.001087 133.455032,34.899025 137.501587,35.009369 
	C141.536652,35.119400 145.585266,34.732582 149.896942,34.552357 
	C149.896942,29.300785 150.021500,24.146988 149.784088,19.009922 
	C149.740479,18.066259 148.227966,17.190483 146.514893,16.282801 
M166.763519,26.927589 
	C166.763519,29.525167 166.763519,32.122746 166.763519,34.744812 
	C168.839890,34.744812 170.405045,34.744812 172.226273,34.744812 
	C172.226273,30.691528 172.264404,26.900953 172.215714,23.111494 
	C172.165451,19.201630 169.952988,16.598253 166.305115,16.288721 
	C162.272217,15.946522 158.151962,16.634005 154.149643,16.868359 
	C154.149643,22.988411 154.149643,28.896246 154.149643,35.064545 
	C156.149597,34.949898 157.857254,34.852009 159.731186,34.744591 
	C159.731186,31.595644 159.348160,28.877802 159.857361,26.338898 
	C160.236526,24.448360 161.488022,21.585117 162.846451,21.266346 
	C166.152069,20.490646 166.802673,23.280581 166.763519,26.927589 
M198.010010,18.325647 
	C192.544022,28.292234 203.983932,25.694860 207.573547,30.880100 
	C203.043274,30.066059 199.692520,29.463964 195.582047,28.725355 
	C197.764954,34.321438 201.388809,35.868210 205.571075,34.885246 
	C207.898926,34.338123 210.801437,32.414234 211.668900,30.360596 
	C213.009552,27.186733 210.145538,25.364975 207.298843,24.310442 
	C205.464249,23.630838 203.610611,23.002674 201.765503,22.351456 
	C201.886475,21.806900 202.007462,21.262344 202.128433,20.717789 
	C205.207581,21.256256 208.286743,21.794724 212.044037,22.451782 
	C208.785370,15.657969 205.180756,14.668500 198.010010,18.325647 
M122.106026,23.579823 
	C122.106026,21.153316 122.106026,18.726810 122.106026,16.259214 
	C124.472878,16.097162 126.224617,15.977226 127.862549,15.865081 
	C128.746002,12.859959 128.123169,11.530269 124.995590,11.704497 
	C121.193756,11.916287 117.367241,11.861691 113.558640,11.723269 
	C110.091690,11.597265 109.596291,13.068497 110.824875,15.862213 
	C112.736961,16.023260 114.491165,16.171009 116.689529,16.356169 
	C116.689529,22.658390 116.689529,28.703066 116.689529,34.710304 
	C118.734612,34.710304 120.299774,34.710304 122.106026,34.710304 
	C122.106026,31.132038 122.106026,27.839834 122.106026,23.579823 
z"/>
<path fill="#1C233B" opacity="1.000000" stroke="none" 
	d="
M11.746712,24.006754 
	C11.820338,6.332020 13.390710,4.752901 30.548088,4.758950 
	C33.871353,4.760121 37.206566,4.737775 40.515198,4.996117 
	C46.591408,5.470555 49.795872,8.330979 50.129070,14.341140 
	C50.496048,20.960497 50.480629,27.633226 50.099640,34.252071 
	C49.773365,39.920433 46.896465,42.768772 41.209187,43.106888 
	C34.755920,43.490540 28.249483,43.520275 21.794128,43.177395 
	C15.235373,42.829025 12.396356,39.622372 11.949242,32.971004 
	C11.759932,30.154791 11.806990,27.322687 11.746712,24.006754 
M32.346043,25.994925 
	C33.453899,27.873297 34.325600,29.995897 35.836788,31.457161 
	C36.211418,31.819420 39.883804,30.130634 39.951729,29.227556 
	C40.357819,23.828367 40.152870,18.383219 40.152870,12.187686 
	C37.009441,13.694212 35.027321,15.290909 32.884464,15.548036 
	C26.826412,16.274956 24.357052,19.322117 25.665419,25.369076 
	C24.507250,25.800251 23.187195,25.874992 22.772276,26.526327 
	C21.644650,28.296461 20.012432,30.456076 20.294750,32.180634 
	C20.507185,33.478302 23.662123,35.461727 24.980070,35.118099 
	C26.661335,34.679745 28.070351,32.351524 29.089617,30.550852 
	C29.661125,29.541206 29.410677,27.916225 29.182968,26.630028 
	C28.153906,20.817471 31.222469,19.036266 36.343884,19.129133 
	C38.805893,23.326311 33.647305,23.099722 32.346043,25.994925 
z"/>
<path fill="#0D0D0D" opacity="1.000000" stroke="none" 
	d="
M83.982712,28.001865 
	C83.321098,30.478239 82.741806,32.548538 82.113548,34.793831 
	C79.892990,34.793831 77.790680,34.793831 75.318695,34.793831 
	C74.195312,30.429077 73.052528,25.988930 71.558495,20.184048 
	C70.057999,25.748165 68.899063,30.045723 67.647324,34.687412 
	C65.553017,34.687412 63.310711,34.687412 60.929867,34.687412 
	C60.661182,33.987339 60.284157,33.239979 60.084534,32.447906 
	C58.392391,25.733852 56.732582,19.011650 54.978985,11.953460 
	C56.983135,11.852209 58.601955,11.770426 60.760361,11.661382 
	C61.860584,16.665941 62.946541,21.605614 64.358673,28.028955 
	C65.948502,21.755072 67.171059,16.930536 68.432251,11.953516 
	C70.580894,11.953516 72.515808,11.953516 74.728973,11.953516 
	C75.917068,16.844572 77.083221,21.645338 78.249382,26.446104 
	C78.489609,26.484547 78.729843,26.522989 78.970070,26.561430 
	C80.037170,21.729773 81.104279,16.898113 82.190964,11.977767 
	C84.176682,11.977767 85.934296,11.977767 88.110161,11.977767 
	C86.705017,17.402946 85.385025,22.499369 83.982712,28.001865 
z"/>
<path fill="#0A0A0A" opacity="1.000000" stroke="none" 
	d="
M108.369675,23.699619 
	C107.607292,25.062517 106.863655,26.779278 105.947739,26.876719 
	C102.712158,27.220947 99.417572,27.010717 95.306267,27.010717 
	C98.955177,34.106403 104.013687,26.271118 107.318367,29.448559 
	C105.999619,34.001160 103.001648,35.763557 97.419121,35.026844 
	C93.032730,34.447983 90.066795,30.793625 90.001183,25.887140 
	C89.932556,20.756081 92.691895,17.191933 97.511452,16.186384 
	C102.332108,15.180605 106.363853,17.840733 108.369675,23.699619 
z"/>
<path fill="#090909" opacity="1.000000" stroke="none" 
	d="
M192.516663,26.959343 
	C188.485428,27.003229 184.899719,27.003229 180.505920,27.003229 
	C184.238434,34.066376 189.329117,26.158409 192.665085,29.531681 
	C191.109634,34.412399 186.494202,36.599129 181.132904,34.716911 
	C176.466614,33.078693 174.141861,27.612139 175.852585,22.300451 
	C177.461716,17.304228 182.722763,14.856043 187.864700,16.710735 
	C192.705826,18.456924 194.610397,22.269701 192.516663,26.959343 
z"/>
<path fill="#121212" opacity="1.000000" stroke="none" 
	d="
M146.954193,16.283085 
	C148.227966,17.190483 149.740479,18.066259 149.784088,19.009922 
	C150.021500,24.146988 149.896942,29.300785 149.896942,34.552357 
	C145.585266,34.732582 141.536652,35.119400 137.501587,35.009369 
	C133.455032,34.899025 131.629517,32.001087 131.323227,28.397854 
	C131.002014,24.618889 131.251373,20.791428 131.251373,16.578394 
	C132.976913,16.459217 134.556747,16.350103 136.899994,16.188263 
	C136.899994,19.448252 136.903717,22.376301 136.898834,25.304337 
	C136.894684,27.799858 137.174973,30.178024 140.431412,30.221678 
	C143.691620,30.265388 144.070831,28.010780 143.988571,25.428783 
	C143.919617,23.264788 143.713394,21.049322 144.091965,18.951193 
	C144.272858,17.948643 145.669113,17.165384 146.954193,16.283085 
z"/>
<path fill="#0B0B0B" opacity="1.000000" stroke="none" 
	d="
M166.763336,26.479443 
	C166.802673,23.280581 166.152069,20.490646 162.846451,21.266346 
	C161.488022,21.585117 160.236526,24.448360 159.857361,26.338898 
	C159.348160,28.877802 159.731186,31.595644 159.731186,34.744591 
	C157.857254,34.852009 156.149597,34.949898 154.149643,35.064545 
	C154.149643,28.896246 154.149643,22.988411 154.149643,16.868359 
	C158.151962,16.634005 162.272217,15.946522 166.305115,16.288721 
	C169.952988,16.598253 172.165451,19.201630 172.215714,23.111494 
	C172.264404,26.900953 172.226273,30.691528 172.226273,34.744812 
	C170.405045,34.744812 168.839890,34.744812 166.763519,34.744812 
	C166.763519,32.122746 166.763519,29.525167 166.763336,26.479443 
z"/>
<path fill="#0C0C0C" opacity="1.000000" stroke="none" 
	d="
M198.291412,18.076193 
	C205.180756,14.668500 208.785370,15.657969 212.044037,22.451782 
	C208.286743,21.794724 205.207581,21.256256 202.128433,20.717789 
	C202.007462,21.262344 201.886475,21.806900 201.765503,22.351456 
	C203.610611,23.002674 205.464249,23.630838 207.298843,24.310442 
	C210.145538,25.364975 213.009552,27.186733 211.668900,30.360596 
	C210.801437,32.414234 207.898926,34.338123 205.571075,34.885246 
	C201.388809,35.868210 197.764954,34.321438 195.582047,28.725355 
	C199.692520,29.463964 203.043274,30.066059 207.573547,30.880100 
	C203.983932,25.694860 192.544022,28.292234 198.291412,18.076193 
z"/>
<path fill="#040404" opacity="1.000000" stroke="none" 
	d="
M122.106026,24.063726 
	C122.106026,27.839834 122.106026,31.132038 122.106026,34.710304 
	C120.299774,34.710304 118.734612,34.710304 116.689529,34.710304 
	C116.689529,28.703066 116.689529,22.658390 116.689529,16.356169 
	C114.491165,16.171009 112.736961,16.023260 110.824875,15.862213 
	C109.596291,13.068497 110.091690,11.597265 113.558640,11.723269 
	C117.367241,11.861691 121.193756,11.916287 124.995590,11.704497 
	C128.123169,11.530269 128.746002,12.859959 127.862549,15.865081 
	C126.224617,15.977226 124.472878,16.097162 122.106026,16.259214 
	C122.106026,18.726810 122.106026,21.153316 122.106026,24.063726 
z"/>
<path fill="#ECEDEF" opacity="1.000000" stroke="none" 
	d="
M32.545883,25.664352 
	C33.647305,23.099722 38.805893,23.326311 36.343884,19.129133 
	C31.222469,19.036266 28.153906,20.817471 29.182968,26.630028 
	C29.410677,27.916225 29.661125,29.541206 29.089617,30.550852 
	C28.070351,32.351524 26.661335,34.679745 24.980070,35.118099 
	C23.662123,35.461727 20.507185,33.478302 20.294750,32.180634 
	C20.012432,30.456076 21.644650,28.296461 22.772276,26.526327 
	C23.187195,25.874992 24.507250,25.800251 25.665419,25.369076 
	C24.357052,19.322117 26.826412,16.274956 32.884464,15.548036 
	C35.027321,15.290909 37.009441,13.694212 40.152870,12.187686 
	C40.152870,18.383219 40.357819,23.828367 39.951729,29.227556 
	C39.883804,30.130634 36.211418,31.819420 35.836788,31.457161 
	C34.325600,29.995897 33.453899,27.873297 32.545883,25.664352 
z"/>
</svg>